<?xml version="1.0" encoding="iso-8859-1"?>
<!-- Generator: Adobe Illustrator 19.0.0, SVG Export Plug-In . SVG Version: 6.00 Build 0)  -->
<svg version="1.1" id="Capa_1" xmlns="http://www.w3.org/2000/svg" xmlns:xlink="http://www.w3.org/1999/xlink" x="0px" y="0px" fill="#777"
	 viewBox="0 0 512 512" style="enable-background:new 0 0 512 512;" xml:space="preserve">
<g>
	<g>
		<path d="M495.484,27.527H16.516C7.394,27.527,0,34.921,0,44.043v423.914c0,9.122,7.394,16.516,16.516,16.516h478.968
			c9.122,0,16.516-7.394,16.516-16.516V44.043C512,34.921,504.606,27.527,495.484,27.527z M478.968,451.441H33.032V60.559h445.935
			V451.441z"/>
	</g>
</g>
<g>
	<g>
		<rect x="16.516" y="148.645" width="478.968" height="33.032"/>
	</g>
</g>
<g>
	<g>
		<circle cx="154.151" cy="104.602" r="27.527"/>
	</g>
</g>
<g>
	<g>
		<circle cx="225.72" cy="104.602" r="27.527"/>
	</g>
</g>
<g>
	<g>
		<circle cx="82.581" cy="104.602" r="27.527"/>
	</g>
</g>
<g>
	<g>
		<path d="M428.869,210.305H83.131c-9.122,0-16.516,7.394-16.516,16.516v71.57c0,9.122,7.394,16.516,16.516,16.516h345.738
			c9.128,0,16.516-7.394,16.516-16.516v-71.57C445.385,217.699,437.991,210.305,428.869,210.305z M412.353,281.875H99.647v-38.538
			h312.705V281.875z"/>
	</g>
</g>
<g>
	<g>
		<path d="M258.202,336.929H83.131c-9.122,0-16.516,7.394-16.516,16.516c0,9.122,7.394,16.516,16.516,16.516h175.071
			c9.122,0,16.516-7.394,16.516-16.516C274.718,344.323,267.325,336.929,258.202,336.929z"/>
	</g>
</g>
<g>
	<g>
		<path d="M258.202,391.983H83.131c-9.122,0-16.516,7.394-16.516,16.516s7.394,16.516,16.516,16.516h175.071
			c9.122,0,16.516-7.394,16.516-16.516S267.325,391.983,258.202,391.983z"/>
	</g>
</g>
</svg>
