<svg width="224" height="204" viewBox="0 0 224 204" fill="none" xmlns="http://www.w3.org/2000/svg">
    <path d="M5.61328 101.422L17.8398 106.363V110.191L1.86328 102.789V99.9375L17.8398 92.5547V96.3828L5.61328 101.422ZM33.5234 109.02L41.6484 85.5625H45.75L35.2031 114H31.8828L21.3555 85.5625H25.4375L33.5234 109.02ZM57.957 101.324C54.7409 100.4 52.3971 99.2669 50.9258 97.9258C49.4674 96.5716 48.7383 94.9049 48.7383 92.9258C48.7383 90.6862 49.6302 88.8372 51.4141 87.3789C53.2109 85.9076 55.5417 85.1719 58.4062 85.1719C60.3594 85.1719 62.0977 85.5495 63.6211 86.3047C65.1576 87.0599 66.3424 88.1016 67.1758 89.4297C68.0221 90.7578 68.4453 92.2096 68.4453 93.7852H64.6758C64.6758 92.0664 64.1289 90.7188 63.0352 89.7422C61.9414 88.7526 60.3984 88.2578 58.4062 88.2578C56.5573 88.2578 55.112 88.668 54.0703 89.4883C53.0417 90.2956 52.5273 91.4219 52.5273 92.8672C52.5273 94.026 53.0156 95.0091 53.9922 95.8164C54.9818 96.6107 56.6549 97.3398 59.0117 98.0039C61.3815 98.668 63.2305 99.4036 64.5586 100.211C65.8997 101.005 66.8893 101.936 67.5273 103.004C68.1784 104.072 68.5039 105.328 68.5039 106.773C68.5039 109.078 67.6055 110.927 65.8086 112.32C64.0117 113.701 61.6094 114.391 58.6016 114.391C56.6484 114.391 54.8255 114.02 53.1328 113.277C51.4401 112.522 50.1315 111.493 49.207 110.191C48.2956 108.889 47.8398 107.411 47.8398 105.758H51.6094C51.6094 107.477 52.2409 108.837 53.5039 109.84C54.7799 110.829 56.4792 111.324 58.6016 111.324C60.5807 111.324 62.0977 110.921 63.1523 110.113C64.207 109.306 64.7344 108.206 64.7344 106.812C64.7344 105.419 64.2461 104.345 63.2695 103.59C62.293 102.822 60.5221 102.066 57.957 101.324ZM94.2461 104.977C93.8945 107.984 92.7812 110.309 90.9062 111.949C89.0443 113.577 86.5638 114.391 83.4648 114.391C80.1055 114.391 77.4102 113.186 75.3789 110.777C73.3607 108.368 72.3516 105.146 72.3516 101.109V98.375C72.3516 95.7318 72.8203 93.4076 73.7578 91.4023C74.7083 89.3971 76.0495 87.8607 77.7812 86.793C79.513 85.7122 81.5182 85.1719 83.7969 85.1719C86.8177 85.1719 89.2396 86.0182 91.0625 87.7109C92.8854 89.3906 93.9466 91.7214 94.2461 94.7031H90.4766C90.151 92.4375 89.4414 90.7969 88.3477 89.7812C87.2669 88.7656 85.75 88.2578 83.7969 88.2578C81.401 88.2578 79.5195 89.1432 78.1523 90.9141C76.7982 92.6849 76.1211 95.2044 76.1211 98.4727V101.227C76.1211 104.312 76.7656 106.767 78.0547 108.59C79.3438 110.413 81.1471 111.324 83.4648 111.324C85.5482 111.324 87.1432 110.855 88.25 109.918C89.3698 108.967 90.112 107.32 90.4766 104.977H94.2461ZM97.8594 103.238C97.8594 101.168 98.263 99.306 99.0703 97.6523C99.8906 95.9987 101.023 94.7227 102.469 93.8242C103.927 92.9258 105.587 92.4766 107.449 92.4766C110.327 92.4766 112.651 93.4727 114.422 95.4648C116.206 97.457 117.098 100.107 117.098 103.414V103.668C117.098 105.725 116.701 107.574 115.906 109.215C115.125 110.842 113.999 112.112 112.527 113.023C111.069 113.935 109.389 114.391 107.488 114.391C104.624 114.391 102.299 113.395 100.516 111.402C98.7448 109.41 97.8594 106.773 97.8594 103.492V103.238ZM101.492 103.668C101.492 106.012 102.033 107.893 103.113 109.312C104.207 110.732 105.665 111.441 107.488 111.441C109.324 111.441 110.783 110.725 111.863 109.293C112.944 107.848 113.484 105.829 113.484 103.238C113.484 100.921 112.931 99.0456 111.824 97.6133C110.73 96.168 109.272 95.4453 107.449 95.4453C105.665 95.4453 104.227 96.1549 103.133 97.5742C102.039 98.9935 101.492 101.025 101.492 103.668ZM120.75 103.258C120.75 100.016 121.518 97.4115 123.055 95.4453C124.591 93.4661 126.603 92.4766 129.09 92.4766C131.564 92.4766 133.523 93.3229 134.969 95.0156V84H138.582V114H135.262L135.086 111.734C133.641 113.505 131.629 114.391 129.051 114.391C126.603 114.391 124.604 113.388 123.055 111.383C121.518 109.378 120.75 106.76 120.75 103.531V103.258ZM124.363 103.668C124.363 106.064 124.858 107.939 125.848 109.293C126.837 110.647 128.204 111.324 129.949 111.324C132.241 111.324 133.914 110.296 134.969 108.238V98.5312C133.888 96.5391 132.228 95.543 129.988 95.543C128.217 95.543 126.837 96.2266 125.848 97.5938C124.858 98.9609 124.363 100.986 124.363 103.668ZM152.977 114.391C150.112 114.391 147.781 113.453 145.984 111.578C144.188 109.69 143.289 107.171 143.289 104.02V103.355C143.289 101.259 143.686 99.3906 144.48 97.75C145.288 96.0964 146.408 94.8073 147.84 93.8828C149.285 92.9453 150.848 92.4766 152.527 92.4766C155.275 92.4766 157.41 93.3815 158.934 95.1914C160.457 97.0013 161.219 99.5924 161.219 102.965V104.469H146.902C146.954 106.552 147.56 108.238 148.719 109.527C149.891 110.803 151.375 111.441 153.172 111.441C154.448 111.441 155.529 111.181 156.414 110.66C157.299 110.139 158.074 109.449 158.738 108.59L160.945 110.309C159.174 113.03 156.518 114.391 152.977 114.391ZM152.527 95.4453C151.069 95.4453 149.845 95.9792 148.855 97.0469C147.866 98.1016 147.254 99.5859 147.02 101.5H157.605V101.227C157.501 99.3906 157.007 97.9714 156.121 96.9688C155.236 95.9531 154.038 95.4453 152.527 95.4453ZM175.633 96.1094C175.086 96.0182 174.493 95.9727 173.855 95.9727C171.486 95.9727 169.878 96.9818 169.031 99V114H165.418V92.8672H168.934L168.992 95.3086C170.177 93.4206 171.857 92.4766 174.031 92.4766C174.734 92.4766 175.268 92.5677 175.633 92.75V96.1094ZM189.617 116.441H186.512L198.387 85.5625H201.473L189.617 116.441ZM218.172 101.305L205.262 96.2461V92.5352L221.941 99.918V102.77L205.262 110.172V106.422L218.172 101.305Z" fill="url(#paint0_linear)"/>
    <path d="M209 114C192.5 228 33.5 231.5 15 114" stroke="url(#paint1_diamond)" stroke-width="5" stroke-linecap="round" stroke-linejoin="round"/>
    <path d="M15 89.5C31.5 -24.5 190.5 -28 209 89.5" stroke="url(#paint2_linear)" stroke-width="5" stroke-linecap="round" stroke-linejoin="round"/>
    <defs>
    <linearGradient id="paint0_linear" x1="172.5" y1="100" x2="53" y2="100" gradientUnits="userSpaceOnUse">
    <stop offset="0.375" stop-color="#00FFFF"/>
    <stop offset="0.640625" stop-color="#05FCA3" stop-opacity="0.81"/>
    </linearGradient>
    <radialGradient id="paint1_diamond" cx="0" cy="0" r="1" gradientUnits="userSpaceOnUse" gradientTransform="translate(194 151) rotate(-179.828) scale(167.001 373.175)">
    <stop offset="0.375" stop-color="#00FFFF"/>
    <stop offset="0.640625" stop-color="#05FCA3" stop-opacity="0.81"/>
    </radialGradient>
    <linearGradient id="paint2_linear" x1="164.397" y1="46.0913" x2="60.9018" y2="46.0913" gradientUnits="userSpaceOnUse">
    <stop offset="0.375" stop-color="#00FFFF"/>
    <stop offset="0.640625" stop-color="#05FCA3" stop-opacity="0.81"/>
    </linearGradient>
    </defs>
    </svg>
